Coordinates
version=1
nRows=21
nColumns=22
inDegrees=yes

Units are S.I. units (second, meters, Newtons, ...)
If the header above contains a line with 'inDegrees', this indicates whether rotational values are in degrees (yes) or radians (no).

endheader
time	pelvis_tilt	pelvis_list	pelvis_rotation	pelvis_tx	pelvis_ty	pelvis_tz	hip_flexion_r	hip_adduction_r	hip_rotation_r	knee_angle_r	ankle_angle_r	subtalar_angle_r	hip_flexion_l	hip_adduction_l	hip_rotation_l	knee_angle_l	ankle_angle_l	subtalar_angle_l	lumbar_extension	lumbar_bending	lumbar_rotation
      0.01000000	      2.03094180	     -2.49393249	     -4.57688500	     -1.33093410	      0.93936087	     -0.04298263	     -1.06712771	      3.51295235	     -0.79740910	    -10.28769345	      4.87521816	     -1.76802452	     -1.25915227	     -3.97787491	    -13.77811808	    -12.94790374	      9.03806558	      0.33876030	     -4.86463300	     -1.06731414	      0.61483431
      0.02000000	      2.02659760	     -2.48767685	     -4.58535596	     -1.33077040	      0.93934881	     -0.04296409	     -1.07878575	      3.50524032	     -0.81081696	    -10.27355505	      4.85880574	     -1.78380196	     -1.26999357	     -3.97053273	    -13.78599072	    -12.94176004	      9.08010974	      0.34495675	     -4.84732684	     -1.06916045	      0.61080809
      0.03000000	      2.02463543	     -2.48629256	     -4.58693148	     -1.33059683	      0.93933738	     -0.04294755	     -1.08692271	      3.50325906	     -0.81086182	    -10.27741753	      4.85884066	     -1.78523381	     -1.27771863	     -3.97080795	    -13.78654898	    -12.94716262	      9.08215239	      0.34588886	     -4.83451635	     -1.06571604	      0.61074825
      0.04000000	      2.01562260	     -2.48555197	     -4.61127587	     -1.33035573	      0.93930605	     -0.04290034	     -1.10093848	      3.50215774	     -0.80177812	    -10.26120909	      4.87689845	     -1.81834888	     -1.29139307	     -3.97199657	    -13.83576424	    -12.94346144	      9.13592349	      0.38011868	     -4.80292259	     -1.06001707	      0.62784318
      0.05000000	      2.00543428	     -2.48094875	     -4.62068628	     -1.33010089	      0.93927589	     -0.04288910	     -1.11341018	      3.49477704	     -0.81326397	    -10.24758404	      4.88414698	     -1.82189672	     -1.30211908	     -3.96676348	    -13.85174177	    -12.93699095	      9.13984877	      0.38621739	     -4.76925595	     -1.05249663	      0.62636272
      0.06000000	      1.99398624	     -2.47158966	     -4.62828694	     -1.32982520	      0.93923979	     -0.04287567	     -1.12683220	      3.48260388	     -0.82396285	    -10.23232424	      4.89552838	     -1.82485977	     -1.31261938	     -3.95638242	    -13.87218349	    -12.92965329	      9.15201781	      0.39516365	     -4.72962013	     -1.05169415	      0.62644329
      0.07000000	      1.98308620	     -2.46029011	     -4.63608178	     -1.32955291	      0.93920277	     -0.04286322	     -1.13983163	      3.46802619	     -0.83202669	    -10.21889525	      4.90997260	     -1.82686377	     -1.32201221	     -3.94391265	    -13.89046297	    -12.92483938	      9.16612220	      0.40548324	     -4.69043806	     -1.05314766	      0.62792336
      0.08000000	      1.98155314	     -2.45709134	     -4.63763965	     -1.32932160	      0.93918166	     -0.04285325	     -1.15205441	      3.46248510	     -0.83190874	    -10.22492083	      4.91138071	     -1.82709421	     -1.33212325	     -3.94073239	    -13.89051707	    -12.93323396	      9.16730854	      0.40682951	     -4.66900085	     -1.04746329	      0.62809179
      0.09000000	      1.96902980	     -2.44512660	     -4.64578918	     -1.32905258	      0.93914756	     -0.04283419	     -1.17005319	      3.44788706	     -0.84253745	    -10.19682800	      4.93456244	     -1.82695019	     -1.34241139	     -3.92682720	    -13.91058422	    -12.92259487	      9.18759434	      0.41824765	     -4.62564207	     -1.05095241	      0.63383916
      0.10000000	      1.96822061	     -2.44248751	     -4.64984657	     -1.32885265	      0.93913370	     -0.04281396	     -1.18071932	      3.44415307	     -0.84199867	    -10.20163354	      4.93635675	     -1.82700735	     -1.35200464	     -3.92393979	    -13.90877746	    -12.93148621	      9.18859738	      0.41952856	     -4.60811475	     -1.04575659	      0.63435306
      0.11000000	      1.96728829	     -2.44001185	     -4.65366217	     -1.32865901	      0.93912353	     -0.04279062	     -1.19247724	      3.44062750	     -0.84239190	    -10.20360382	      4.93933079	     -1.82694836	     -1.36139425	     -3.92138694	    -13.90721557	    -12.93920283	      9.19060056	      0.42081037	     -4.59001197	     -1.04073872	      0.63662718
      0.12000000	      1.96323665	     -2.43674697	     -4.66087508	     -1.32845216	      0.93910934	     -0.04275923	     -1.21608032	      3.43654320	     -0.84718777	    -10.17516492	      4.96312771	     -1.82588061	     -1.37352518	     -3.91741325	    -13.90912759	    -12.93684258	      9.20989494	      0.42854653	     -4.56657699	     -1.03827990	      0.65996359
      0.13000000	      1.96330017	     -2.43484224	     -4.65773534	     -1.32828737	      0.93910379	     -0.04273694	     -1.22522924	      3.43490902	     -0.84472249	    -10.18117057	      4.96430008	     -1.82592598	     -1.38130358	     -3.91712459	    -13.90808085	    -12.94283824	      9.21140770	      0.42950370	     -4.55522756	     -1.03496808	      0.66281755
      0.14000000	      1.96315568	     -2.43308854	     -4.65442204	     -1.32812770	      0.93909772	     -0.04271423	     -1.23462144	      3.43354089	     -0.84345385	    -10.18505255	      4.96667664	     -1.82590302	     -1.38855027	     -3.91733277	    -13.90689513	    -12.94867441	      9.21410503	      0.43067900	     -4.54518140	     -1.03188808	      0.66865984
      0.15000000	      1.96924115	     -2.43509281	     -4.65282559	     -1.32797099	      0.93909326	     -0.04268150	     -1.25852653	      3.43620204	     -0.84714908	    -10.17228553	      4.99221950	     -1.82503818	     -1.40219879	     -3.92190149	    -13.90453471	    -12.95716003	      9.24263107	      0.44074780	     -4.54579800	     -1.02953864	      0.71331489
      0.16000000	      1.96877258	     -2.43329182	     -4.64480560	     -1.32782147	      0.93908375	     -0.04266406	     -1.26533670	      3.43524264	     -0.84425777	    -10.17926218	      4.99320892	     -1.82508328	     -1.40855639	     -3.92266392	    -13.90548440	    -12.96059639	      9.24467133	      0.44170668	     -4.53919674	     -1.02750102	      0.71687996
      0.17000000	      1.96826151	     -2.43173559	     -4.63425117	     -1.32767398	      0.93907202	     -0.04264399	     -1.27225801	      3.43540533	     -0.84197530	    -10.18599340	      4.99576622	     -1.82495639	     -1.41444096	     -3.92398938	    -13.90563704	    -12.96416168	      9.24783595	      0.44274861	     -4.53427866	     -1.02761729	      0.72506068
      0.18000000	      1.97544483	     -2.43241633	     -4.62720925	     -1.32755477	      0.93906377	     -0.04260485	     -1.28494660	      3.43834019	     -0.84454978	    -10.19344765	      5.02061040	     -1.82296273	     -1.42517446	     -3.92779501	    -13.89419567	    -12.97365984	      9.26948960	      0.44792968	     -4.54719588	     -1.03309913	      0.77154249
      0.19000000	      1.97414358	     -2.43083628	     -4.61918315	     -1.32740051	      0.93904823	     -0.04258272	     -1.29111895	      3.43811606	     -0.84205769	    -10.20045498	      5.02269544	     -1.82273590	     -1.43213859	     -3.92777613	    -13.89386117	    -12.97657642	      9.27128369	      0.44825065	     -4.54120997	     -1.03244575	      0.77584589
      0.20000000	      1.97302157	     -2.42965403	     -4.60784615	     -1.32725014	      0.93903355	     -0.04255042	     -1.29774980	      3.43996337	     -0.83961031	    -10.20765098	      5.02708136	     -1.82215790	     -1.43872526	     -3.92951674	    -13.89133595	    -12.97846343	      9.27435705	      0.44842780	     -4.53781828	     -1.03643644	      0.78541382
      0.21000000	      1.99798177	     -2.42702718	     -4.60827805	     -1.32710946	      0.93904223	     -0.04250655	     -1.32762910	      3.43667096	     -0.83768940	    -10.22350984	      5.09088042	     -1.81229560	     -1.48510497	     -3.92199555	    -13.86345690	    -12.96049965	      9.31298593	      0.44936167	     -4.57027716	     -1.04592265	      0.82753572
